<mxfile host="app.diagrams.net" modified="2021-12-24T06:39:26.825Z" agent="5.0 (Macintosh; Intel Mac OS X 10_15_7) AppleWebKit/537.36 (KHTML, like Gecko) Chrome/96.0.4664.110 Safari/537.36" etag="Ldla0Br6V3762fOpK9_a" version="16.0.0" type="github">
  <diagram id="twnSZ4bnVxqGKZwtWIpM" name="Page-1">
    <mxGraphModel dx="1554" dy="841" grid="1" gridSize="10" guides="1" tooltips="1" connect="1" arrows="1" fold="1" page="1" pageScale="1" pageWidth="827" pageHeight="1169" math="0" shadow="0">
      <root>
        <mxCell id="0" />
        <mxCell id="1" parent="0" />
        <mxCell id="XaXoEX-IFVVMCDFkz8bY-1" value="" style="rounded=0;whiteSpace=wrap;html=1;" vertex="1" parent="1">
          <mxGeometry x="140" y="140" width="580" height="60" as="geometry" />
        </mxCell>
        <mxCell id="XaXoEX-IFVVMCDFkz8bY-2" value="" style="rounded=0;whiteSpace=wrap;html=1;" vertex="1" parent="1">
          <mxGeometry x="140" y="230" width="580" height="310" as="geometry" />
        </mxCell>
        <mxCell id="XaXoEX-IFVVMCDFkz8bY-3" value="" style="rounded=0;whiteSpace=wrap;html=1;" vertex="1" parent="1">
          <mxGeometry x="140" y="580" width="580" height="70" as="geometry" />
        </mxCell>
        <mxCell id="XaXoEX-IFVVMCDFkz8bY-4" value="用户管理" style="rounded=0;whiteSpace=wrap;html=1;" vertex="1" parent="1">
          <mxGeometry x="170" y="260" width="70" height="40" as="geometry" />
        </mxCell>
        <mxCell id="XaXoEX-IFVVMCDFkz8bY-5" value="消息通知" style="rounded=0;whiteSpace=wrap;html=1;" vertex="1" parent="1">
          <mxGeometry x="550" y="260" width="70" height="40" as="geometry" />
        </mxCell>
        <mxCell id="XaXoEX-IFVVMCDFkz8bY-6" value="黑白名单" style="rounded=0;whiteSpace=wrap;html=1;" vertex="1" parent="1">
          <mxGeometry x="450" y="260" width="70" height="40" as="geometry" />
        </mxCell>
        <mxCell id="XaXoEX-IFVVMCDFkz8bY-7" value="授权管理" style="rounded=0;whiteSpace=wrap;html=1;" vertex="1" parent="1">
          <mxGeometry x="270" y="260" width="70" height="40" as="geometry" />
        </mxCell>
        <mxCell id="XaXoEX-IFVVMCDFkz8bY-8" value="部门管理" style="rounded=0;whiteSpace=wrap;html=1;" vertex="1" parent="1">
          <mxGeometry x="170" y="320" width="70" height="40" as="geometry" />
        </mxCell>
        <mxCell id="XaXoEX-IFVVMCDFkz8bY-9" value="岗位管理" style="rounded=0;whiteSpace=wrap;html=1;" vertex="1" parent="1">
          <mxGeometry x="270" y="320" width="70" height="40" as="geometry" />
        </mxCell>
      </root>
    </mxGraphModel>
  </diagram>
</mxfile>
